<svg width="70" height="70" viewBox="0 0 70 70" fill="none" xmlns="http://www.w3.org/2000/svg">
<path d="M12.7806 10.0029L16.9463 55.1368L35 59.9969L53.053 55.1368L57.2201 10.0029H12.7806ZM48.272 24.6308L34.9839 30.312L34.9517 30.3253H34.9839H47.803L46.333 47.2275L35.0042 50.535L34.9839 50.5287V50.535L23.5935 47.1666L22.8585 38.6546H22.8781H28.4921H28.5124L28.8799 43.0639L34.9321 44.592L34.9839 44.5773V44.5843L41.2503 42.8196L41.6794 35.716L34.9839 35.6957L22.491 35.6537L22.0626 30.326L34.9839 24.9444L35.7371 24.6315H34.9839H21.5726L20.8985 19.1799H34.9839H48.8236L48.272 24.6308Z" fill="#857AFF"/>
</svg>
