<svg width="70" height="70" viewBox="0 0 70 70" fill="none" xmlns="http://www.w3.org/2000/svg">
<path d="M21.0722 17.43H29.2775V40.4294C29.2775 50.7937 24.3097 54.4119 16.3735 54.4119C14.431 54.4119 11.946 54.0881 10.3272 53.5478L11.246 46.9065C12.3791 47.285 13.8381 47.554 15.4569 47.554C18.9131 47.554 21.0722 45.9878 21.0722 40.3747V17.43ZM36.4022 45.3972C38.5613 46.5303 42.0175 47.6656 45.5263 47.6656C49.3063 47.6656 51.3035 46.0994 51.3035 43.6712C51.3035 41.4575 49.5753 40.1078 45.2025 38.5962C39.1563 36.4372 35.1619 33.0903 35.1619 27.744C35.1619 21.5359 40.3988 16.8394 48.9278 16.8394C53.0841 16.8394 56.0547 17.6487 58.2138 18.6747L56.3785 25.2612C54.9741 24.559 52.3294 23.5331 48.8206 23.5331C45.2572 23.5331 43.5291 25.2065 43.5291 27.0419C43.5291 29.3628 45.5263 30.3887 50.2775 32.224C56.7022 34.5997 59.6706 37.9465 59.6706 43.1287C59.6706 49.2297 55.0288 54.4119 45.0406 54.4119C40.8844 54.4119 36.7806 53.2787 34.7288 52.1434L36.4022 45.3972Z" fill="#857AFF"/>
</svg>
