<svg width="60" height="60" viewBox="0 0 60 60" fill="none" xmlns="http://www.w3.org/2000/svg">
<g clip-path="url(#clip0_275_315)">
<path d="M44.5325 56.255C44.31 56.3725 44.3225 56.42 44.545 56.3075C44.6101 56.2796 44.6695 56.2397 44.72 56.19C44.72 56.15 44.715 56.155 44.5325 56.255ZM44.9775 56.02C44.8725 56.1025 44.8725 56.1075 45 56.0425C45.07 56.0075 45.13 55.9675 45.13 55.955C45.13 55.9075 45.1 55.92 44.9775 56.02ZM45.27 55.8425C45.165 55.925 45.165 55.93 45.2925 55.865C45.3625 55.83 45.4225 55.79 45.4225 55.7775C45.4225 55.73 45.3925 55.7425 45.27 55.8425ZM45.5625 55.6675C45.4575 55.75 45.4575 55.755 45.585 55.69C45.655 55.655 45.715 55.615 45.715 55.6025C45.715 55.555 45.685 55.5675 45.5625 55.6675ZM45.9675 55.405C45.7625 55.535 45.6975 55.6225 45.88 55.5225C46.01 55.4475 46.22 55.2875 46.185 55.2825C46.1083 55.3155 46.0354 55.3565 45.9675 55.405ZM28.035 0.0150239C27.905 0.0275239 27.495 0.0675239 27.125 0.0975239C18.605 0.865024 10.6225 5.46252 5.5675 12.53C2.77291 16.4091 0.956419 20.9058 0.272502 25.6375C0.0325024 27.285 0.00250244 27.7725 0.00250244 30.0075C0.00250244 32.2425 0.0325024 32.7275 0.272502 34.3775C1.9025 45.6425 9.92 55.1075 20.7925 58.615C22.74 59.2425 24.7925 59.67 27.125 59.9275C28.035 60.0275 31.9625 60.0275 32.8725 59.9275C36.9 59.4825 40.315 58.485 43.68 56.7675C44.195 56.5025 44.295 56.4325 44.225 56.375C42.5813 54.2032 40.9529 52.0198 39.34 49.825L34.5425 43.345L28.5325 34.45C26.5342 31.4736 24.5167 28.5103 22.48 25.56C22.4575 25.555 22.4325 29.5075 22.4225 34.3325C22.405 42.7825 22.4 43.1225 22.2925 43.3225C22.1905 43.5562 22.0076 43.7452 21.7775 43.855C21.59 43.95 21.425 43.9675 20.54 43.9675H19.525L19.255 43.7975C19.0884 43.6925 18.9529 43.5449 18.8625 43.37L18.74 43.105L18.7525 31.3475L18.77 19.585L18.9525 19.3575C19.0751 19.2135 19.2224 19.0924 19.3875 19C19.6275 18.8825 19.7225 18.87 20.7375 18.87C21.935 18.87 22.1325 18.9175 22.445 19.2575C24.8779 22.8781 27.2904 26.5124 29.6825 30.16C33.5775 36.065 38.9 44.1275 41.5175 48.0875L46.2675 55.2825L46.5075 55.125C48.7931 53.6047 50.8656 51.7862 52.67 49.7175C56.4499 45.3917 58.9013 40.067 59.73 34.3825C59.97 32.735 60 32.2475 60 30.0125C60 27.7775 59.97 27.2925 59.73 25.6425C58.1 14.3775 50.0825 4.91252 39.21 1.40502C37.1782 0.758143 35.0857 0.320046 32.965 0.0975239C32.4025 0.0400239 28.525 -0.0249761 28.04 0.0225239L28.035 0.0150239ZM40.315 18.16C40.4548 18.2303 40.5792 18.3277 40.681 18.4466C40.7827 18.5655 40.8597 18.7035 40.9075 18.8525C40.955 19.005 40.965 22.265 40.955 29.6125L40.9375 40.1575L39.0775 37.3075L37.2125 34.4575V26.7925C37.2125 21.8375 37.235 19.0525 37.27 18.9175C37.3124 18.7617 37.3856 18.616 37.4852 18.4889C37.5848 18.3618 37.7088 18.2559 37.85 18.1775C38.09 18.055 38.1775 18.0425 39.1 18.0425C39.9675 18.0425 40.12 18.055 40.315 18.16Z" fill="#857AFF"/>
</g>
<defs>
<clipPath id="clip0_275_315">
<rect width="60" height="60" fill="white"/>
</clipPath>
</defs>
</svg>
