<svg width="70" height="70" viewBox="0 0 70 70" fill="none" xmlns="http://www.w3.org/2000/svg">
<g clip-path="url(#clip0_275_321)">
<path d="M35.001 39.8486C37.706 39.8486 39.8988 37.6558 39.8988 34.9508C39.8988 32.2458 37.706 30.053 35.001 30.053C32.296 30.053 30.1032 32.2458 30.1032 34.9508C30.1032 37.6558 32.296 39.8486 35.001 39.8486Z" fill="#857AFF"/>
<path fill-rule="evenodd" clip-rule="evenodd" d="M35.3609 24.627C43.7117 24.6838 52.8226 25.2931 59.0767 30.8701C59.2604 31.0342 59.4376 31.2048 59.6104 31.3809C61.0859 32.8848 61.857 35.3129 60.6659 37.3112C58.2224 41.4138 52.7581 43.2032 47.4676 44.3046C39.5554 45.9518 31.2823 45.9649 23.3734 44.5146C18.8223 43.679 14.1684 42.2145 10.9342 39.1509C9.67525 37.9587 8.599 36.3902 8.76744 34.6446C9.04088 31.8206 11.7501 30.0082 14.0306 28.781C20.3645 25.3729 28.082 24.6106 35.3609 24.627ZM34.7549 25.9099C26.8537 25.9635 18.3017 26.4677 12.2007 31.5198C11.9874 31.6959 11.7818 31.8807 11.5838 32.0743C11.4559 32.199 11.3323 32.3292 11.2131 32.4626C10.1423 33.6657 9.77369 35.5984 10.7843 37.0432C11.8015 38.4968 13.3459 39.5457 14.9362 40.401C20.884 43.5992 27.9124 44.1668 34.7648 44.1909C41.7024 44.216 48.8567 43.5838 54.9849 40.4152C57.4262 39.152 60.1737 37.297 60.0763 34.9082C59.9867 32.7163 57.8495 31.3623 56.2493 30.3954C55.8162 30.134 55.371 29.8923 54.9193 29.6648C48.8359 26.6165 41.7068 25.8946 34.7549 25.9099Z" fill="#857AFF"/>
<path fill-rule="evenodd" clip-rule="evenodd" d="M46.0632 11.7065C49.118 11.7841 50.7007 15.4569 50.9096 18.1694C50.9512 18.7087 50.9665 19.2501 50.9599 19.7915C50.9534 20.3777 50.9216 20.964 50.8702 21.548C50.226 28.7799 46.924 35.6673 43.0357 42.0274C39.2327 48.2487 34.5952 54.4524 28.2865 57.3355C26.2007 58.2893 23.7201 58.8777 21.8738 57.8135C19.3429 56.3555 19.0662 52.9452 19.1132 50.3585C19.1252 49.723 19.1668 49.0876 19.2324 48.4543C20.2048 39.0918 24.9505 30.2226 30.8896 22.5816C34.3546 18.1235 38.4769 13.7015 43.6121 12.1002C44.4204 11.8476 45.0624 11.6944 46.0632 11.7065ZM45.9166 12.9883C42.3302 13.0452 39.1102 15.703 36.2588 18.4648C28.7623 25.724 23.2377 35.3785 21.0152 45.5033C20.8435 46.2876 20.6991 47.0773 20.593 47.8724C20.511 48.4882 20.4509 49.1073 20.4191 49.7285C20.394 50.2229 20.3852 50.7183 20.4005 51.2138C20.4115 51.601 20.4366 51.9882 20.4793 52.3732C20.511 52.6674 20.5537 52.9605 20.6073 53.2515C20.6477 53.4669 20.6948 53.6813 20.7494 53.8946C20.7943 54.0674 20.8446 54.2391 20.9015 54.4098C21.3488 55.7583 22.5016 57.0468 24.0493 57.0894C27.6598 57.1879 31.0591 54.5552 33.998 51.694C39.1573 46.6726 43.0018 40.3627 46.0052 33.7302C48.429 28.3752 50.646 22.5543 49.4079 16.6601C49.3609 16.4369 49.3062 16.216 49.2438 15.9973C49.1924 15.819 49.1344 15.6429 49.071 15.469C48.5898 14.1576 47.4577 12.9851 45.9166 12.9883Z" fill="#857AFF"/>
<path fill-rule="evenodd" clip-rule="evenodd" d="M24.1816 11.7545C28.0798 11.83 31.5809 14.4757 34.6893 17.4387C40.3615 22.8451 44.5451 29.7226 47.7192 36.9611C50.1779 42.5687 52.4398 48.8632 50.4295 54.7804C49.7962 56.6453 48.1938 58.3515 46.0577 58.3953C42.141 58.474 38.5109 55.6259 35.3609 52.5601C27.4585 44.8667 21.5916 34.7101 19.5813 23.9389C19.437 23.1689 19.3221 22.3923 19.2434 21.6125C19.1788 20.9759 19.1384 20.3361 19.1274 19.6962C19.1187 19.18 19.1296 18.6637 19.1657 18.1496C19.1898 17.8062 19.2248 17.465 19.2718 17.1248C19.3167 16.8054 19.3735 16.4871 19.4446 16.1721C19.4916 15.9632 19.5441 15.7565 19.6043 15.5509C20.1938 13.5351 21.7273 11.7392 24.1816 11.7545ZM24.034 13.0375C21.7513 13.0878 20.7068 15.7795 20.4968 17.6684C20.4541 18.0556 20.4279 18.4461 20.4159 18.8365C20.4006 19.3353 20.4071 19.8351 20.4323 20.3339C20.791 27.5515 24.0176 34.5296 27.9113 40.9193C31.5776 46.935 36.0051 52.9265 42.0951 56.0065C43.8538 56.8957 45.991 57.5947 47.5102 56.7547C49.4156 55.7003 49.6496 53.1879 49.7513 51.3154C49.7787 50.8057 49.782 50.2939 49.7656 49.7831C49.7459 49.1421 49.6956 48.5023 49.6201 47.8657C48.9179 41.919 46.2841 36.2917 43.2588 30.9739C39.4942 24.3589 34.8818 17.7657 28.3543 14.3215C27.0024 13.6084 25.539 13.0254 24.034 13.0375Z" fill="#857AFF"/>
</g>
<defs>
<clipPath id="clip0_275_321">
<rect width="70" height="70" fill="white"/>
</clipPath>
</defs>
</svg>
