<svg width="70" height="70" viewBox="0 0 70 70" fill="none" xmlns="http://www.w3.org/2000/svg">
<path d="M57.1156 38.4389C55.1921 38.4414 53.2944 38.8812 51.5659 39.7251C51.0247 38.827 50.6068 37.8602 50.3234 36.8507C50.1606 36.0594 50.1229 35.2475 50.2119 34.4445C50.3988 33.5609 50.6414 32.69 50.9381 31.837C50.9272 31.7254 50.8047 31.1982 49.5731 31.1807C48.3415 31.1632 47.2806 31.4148 47.1669 31.7407C46.953 32.3361 46.7812 32.9457 46.6528 33.5651C45.6335 36.0797 44.3789 38.4923 42.9056 40.7707C42.0802 39.4176 41.7407 37.8234 41.9431 36.2514C42.1301 35.3678 42.3726 34.4969 42.6694 33.6439C42.6584 33.5323 42.5359 33.0051 41.3044 32.9876C40.0728 32.9701 39.0119 33.2217 38.8981 33.5476C38.7844 33.8736 38.64 34.6414 38.384 35.372C38.1281 36.1026 35.14 42.7789 34.3569 44.5004C33.9544 45.3754 33.6065 46.0885 33.3615 46.5698C33.3499 46.6011 33.3353 46.6311 33.3178 46.6595C33.099 47.0729 32.9831 47.2982 32.9831 47.2982V47.3092C32.8147 47.611 32.6353 47.891 32.5456 47.891C32.3892 47.2661 32.3967 46.6113 32.5675 45.9901C33.005 43.6735 34.0769 40.0729 34.0659 39.9482C34.0659 39.8804 34.2672 39.2548 33.3725 38.9311C33.165 38.8323 32.932 38.8003 32.7055 38.8395C32.4791 38.8787 32.2704 38.9871 32.1081 39.1498C32.0294 39.1498 31.9747 39.3401 31.9747 39.3401C31.9747 39.3401 32.9481 35.291 30.1175 35.291C29.0152 35.5128 27.9683 35.9527 27.0386 36.585C26.1088 37.2172 25.3148 38.029 24.7034 38.9726C23.9422 39.386 22.3212 40.2698 20.5865 41.2214C19.9303 41.591 19.2434 41.9607 18.6069 42.3151C18.5631 42.2714 18.5172 42.2145 18.4734 42.1707C15.0281 38.5001 8.69529 35.9101 8.96873 30.9992C9.06935 29.2098 9.68404 24.511 21.129 18.8039C30.5484 14.162 38.045 15.4482 39.3422 18.3007C41.1994 22.3739 35.3259 29.936 25.5937 31.032C24.5171 31.2504 23.4051 31.2241 22.34 30.9548C21.2748 30.6856 20.2839 30.1805 19.4403 29.4767C18.9262 28.9167 18.8475 28.8839 18.6572 28.9954C18.3444 29.1639 18.5456 29.667 18.6572 29.9579C19.0284 30.6298 19.5306 31.2205 20.134 31.695C20.7374 32.1695 21.4298 32.5183 22.1703 32.7207C25.9989 33.5481 29.9907 33.1525 33.5825 31.5898C39.4887 29.3082 44.0825 22.9645 42.735 17.651C41.3809 12.2589 32.4319 10.4804 23.9619 13.4948C18.6566 15.28 13.7546 18.0918 9.53529 21.7701C4.86935 26.1342 4.13217 29.9251 4.43404 31.5154C5.52779 37.1548 13.2956 40.8232 16.404 43.5467C16.2465 43.6364 16.1022 43.7151 15.9797 43.7807C14.4244 44.5529 8.49623 47.6526 7.01092 50.9295C5.3331 54.6482 7.27998 57.306 8.56623 57.6648C10.5044 58.1287 12.539 57.9759 14.3861 57.2277C16.2332 56.4794 17.8005 55.1731 18.8694 53.491C19.7795 52.0959 20.3389 50.5014 20.5 48.8435C20.6612 47.1855 20.4192 45.5131 19.7947 43.9689C19.7841 43.9439 19.7693 43.9209 19.7509 43.901L20.9694 43.1857C21.7634 42.7154 22.5465 42.2801 23.2181 41.9214C22.7627 43.2348 22.4954 44.6061 22.424 45.9945C22.2694 48.1224 22.9206 50.2307 24.2484 51.9007C24.4505 52.0747 24.685 52.2067 24.9385 52.2894C25.1919 52.372 25.4593 52.4034 25.725 52.382C27.0375 52.382 27.639 51.2882 28.2975 49.9889C29.1025 48.4007 29.8287 46.5545 29.8287 46.5545C29.8287 46.5545 28.9231 51.5442 31.384 51.5442C32.2787 51.5442 33.1844 50.3804 33.589 49.7942V49.8051C33.589 49.8051 33.6109 49.7723 33.6569 49.6935L33.8012 49.4595V49.4376C34.16 48.812 34.965 47.3901 36.1615 45.0298C37.7059 41.987 39.1934 38.1829 39.1934 38.1829C39.3369 39.0189 39.5349 39.8447 39.7862 40.6548C40.1465 41.6368 40.5726 42.5935 41.0615 43.5182C40.7028 44.0214 40.4797 44.3014 40.4797 44.3014L40.4906 44.3123C40.1997 44.6929 39.8869 45.1064 39.539 45.5089C38.5042 46.6466 37.5441 47.85 36.6647 49.1117C36.534 49.3236 36.4891 49.5774 36.5391 49.8213C36.5891 50.0651 36.7302 50.2808 36.9337 50.4242C37.3942 50.6638 37.9191 50.7504 38.4322 50.6714C39.2053 50.6277 39.9656 50.4539 40.6809 50.1573C41.3722 49.914 42.0244 49.5714 42.6169 49.1401C43.2277 48.7169 43.7193 48.1437 44.0446 47.4756C44.3699 46.8075 44.5177 46.0669 44.474 45.3251C44.4053 44.3907 44.1666 43.4767 43.7697 42.6279C43.8812 42.4704 43.9884 42.3151 44.0934 42.1576C45.3371 40.3013 46.458 38.3656 47.449 36.3629C47.5925 37.1989 47.7905 38.0247 48.0419 38.8348C48.339 39.6834 48.7048 40.5065 49.1356 41.2957C47.7049 42.3965 46.5779 43.8434 45.8609 45.5001C45.1565 47.5367 45.7034 48.4532 46.7359 48.6654C47.3009 48.7044 47.8658 48.5887 48.37 48.3307C49.1113 48.0871 49.8096 47.7283 50.4394 47.2676C51.1034 46.8757 51.6595 46.3249 52.0578 45.6647C52.4561 45.0045 52.684 44.2556 52.7209 43.4854C52.6713 42.7167 52.4977 41.961 52.2069 41.2476C54.0949 40.51 56.142 40.2748 58.1481 40.5651C63.4725 41.1907 64.5247 44.5135 64.3234 45.9136C64.229 46.4099 64.0295 46.8802 63.7382 47.293C63.4469 47.7058 63.0706 48.0514 62.6347 48.3067C62.265 48.5407 62.1425 48.6195 62.1753 48.7879C62.219 49.0351 62.394 49.022 62.7112 48.9782C63.5137 48.7288 64.2217 48.242 64.7419 47.582C65.2621 46.9221 65.57 46.1199 65.625 45.2814C65.7934 42.0001 62.6609 38.4017 57.1222 38.4345L57.1156 38.4389ZM16.0344 52.2814C14.2669 54.2064 11.8059 54.9326 10.7428 54.3179C9.60092 53.6617 10.0494 50.8179 12.2194 48.7792C13.5066 47.6204 14.8979 46.5828 16.3756 45.6795C16.6337 45.522 17.0144 45.2989 17.4694 45.0232L17.5919 44.9554L17.8609 44.787C18.2486 46.0859 18.2837 47.4646 17.9628 48.7816C17.6418 50.0986 16.9762 51.3065 16.0344 52.2814ZM28.899 43.5314C28.2844 45.0298 26.9981 48.8689 26.215 48.6545C25.5434 48.4751 25.1212 45.5657 26.0815 42.6914C26.5664 41.3077 27.2727 40.0119 28.1728 38.8545C29.1353 37.7804 30.1984 37.4217 30.4544 37.8592C30.2209 39.8167 29.6966 41.7285 28.899 43.5314ZM39.515 48.6107C39.2569 48.7442 39.0119 48.8295 38.9003 48.7682C38.8215 48.7245 39.0119 48.5495 39.0119 48.5495C39.0119 48.5495 40.344 47.1167 40.869 46.4692C41.1709 46.0886 41.5253 45.6423 41.9103 45.137V45.2814C41.9103 46.992 40.2544 48.1448 39.5172 48.6151L39.515 48.6107ZM47.705 46.7426C47.5147 46.6092 47.5475 46.1607 48.1862 44.7629C48.6304 43.8652 49.2508 43.0662 50.0106 42.4135C50.1271 42.7447 50.1877 43.0929 50.19 43.4439C50.1986 44.191 49.9597 44.9199 49.5106 45.5171C49.0615 46.1142 48.4274 46.5459 47.7072 46.7448L47.705 46.7426Z" fill="#857AFF"/>
</svg>
