<svg width="70" height="70" viewBox="0 0 70 70" fill="none" xmlns="http://www.w3.org/2000/svg">
<path d="M52.1216 18.0316C53.9837 18.4648 55.6758 19.4398 56.9844 20.8337C57.7052 21.5881 58.3311 22.4278 58.8481 23.3341C58.8722 23.4325 55.4925 25.7031 53.4428 26.9697C53.3684 27.02 53.0731 26.6984 52.7384 26.2041C52.364 25.5604 51.8325 25.0222 51.1937 24.6397C50.5549 24.2571 49.8295 24.0428 49.0853 24.0166C46.7294 23.8547 45.2113 25.0884 45.2222 27.1512C45.2018 27.658 45.3174 28.161 45.5569 28.6081C46.0753 29.68 47.0378 30.3231 50.0609 31.6334C55.6259 34.0287 58.0147 35.6081 59.4891 37.8525C60.3225 39.2706 60.8357 40.8537 60.9929 42.491C61.1501 44.1283 60.9474 45.7802 60.3991 47.3309C59.6454 49.0316 58.4503 50.4995 56.9378 51.5823C55.4253 52.6651 53.6506 53.3234 51.7978 53.4887C49.8284 53.7147 47.8384 53.6941 45.8741 53.4275C42.8652 52.9331 40.0934 51.4889 37.9641 49.3062C37.1595 48.4003 36.4784 47.3919 35.9384 46.3072C36.1655 46.1383 36.4045 45.9862 36.6538 45.8522C36.9994 45.6553 38.3075 44.9028 39.5413 44.1875L41.7813 42.875L42.2494 43.5575C43.0378 44.685 44.0415 45.6455 45.2025 46.3837C46.3751 47.0269 47.7033 47.3317 49.0389 47.2641C50.3746 47.1965 51.6652 46.7592 52.7669 46.0009C53.3351 45.4471 53.6904 44.7109 53.7704 43.9214C53.8504 43.1319 53.65 42.3394 53.2044 41.6828C52.6006 40.8187 51.3669 40.0925 47.8603 38.5722C45.1107 37.645 42.6063 36.1083 40.5344 34.0769C39.5476 32.9524 38.8189 31.6257 38.3994 30.1897C38.0891 28.5538 38.0433 26.8788 38.2638 25.2284C38.6754 23.3293 39.6609 21.6027 41.0868 20.2825C42.5126 18.9623 44.3099 18.1123 46.235 17.8478C48.1953 17.6136 50.1797 17.6755 52.1216 18.0316ZM33.8713 21.2756L33.8953 24.4562H23.7672V53.2175H16.625V24.4628H6.49688V21.3391C6.46994 20.2693 6.49915 19.1989 6.58438 18.1322C6.62156 18.0819 12.7794 18.0578 20.2453 18.0709L33.8319 18.1081L33.8713 21.2756Z" fill="#857AFF"/>
</svg>
